<?xml version="1.0" standalone="no"?>
<!DOCTYPE svg PUBLIC "-//W3C//DTD SVG 20010904//EN"
 "http://www.w3.org/TR/2001/REC-SVG-20010904/DTD/svg10.dtd">
<svg version="1.0" xmlns="http://www.w3.org/2000/svg"
 width="300.000000pt" height="300.000000pt" viewBox="0 0 250.000000 250.000000"
 preserveAspectRatio="xMidYMid meet">
    <metadata>
Created by potrace 1.10, written by Peter Selinger 2001-2011
</metadata>
    <g transform="translate(0.000000,250.000000) scale(0.100000,-0.100000)"
fill="#000000" stroke="none">
        <path d="M1497 2325 c-31 -66 -71 -154 -90 -195 l-34 -75 181 3 c99 2 183 6
185 8 2 2 -9 32 -24 68 -27 64 -27 64 -10 110 16 41 21 46 48 46 57 0 207 33
207 46 0 7 -25 18 -57 25 -32 6 -123 28 -204 48 l-145 36 -57 -120z m209 43
c46 -12 84 -25 84 -29 0 -4 -15 -10 -34 -13 -19 -4 -39 -13 -46 -21 -17 -21
-26 -19 -70 16 -27 22 -44 29 -59 24 -22 -7 -26 1 -15 29 8 22 41 20 140 -6z
m-106 -58 c0 -5 9 -10 20 -10 11 0 20 -7 20 -15 0 -8 -5 -15 -11 -15 -6 0 -9
-7 -6 -15 7 -17 -9 -30 -18 -15 -4 6 -16 8 -27 4 -13 -4 -18 -2 -14 4 3 5 -1
15 -9 22 -18 15 -10 31 10 23 9 -3 15 1 15 11 0 9 5 16 10 16 6 0 10 -4 10
-10z m-92 -117 c-28 -29 -30 -35 -20 -58 7 -15 10 -30 7 -34 -4 -8 -55 -3 -55
4 0 2 16 39 36 81 33 73 37 77 50 59 13 -17 11 -22 -18 -52z m166 -64 c7 -24
5 -27 -24 -31 -37 -6 -43 2 -30 38 8 19 8 30 0 38 -16 16 -12 32 13 43 20 9
22 7 28 -26 3 -20 9 -48 13 -62z m-104 51 c0 -5 6 -10 14 -10 11 0 12 -6 4
-27 -8 -21 -18 -28 -39 -29 -16 -1 -26 3 -23 8 3 5 0 16 -7 24 -6 8 -10 15 -8
17 2 1 13 7 24 14 25 15 35 16 35 3z"/>
        <path d="M1329 2428 c-1 -7 -1 -21 0 -30 2 -13 -5 -18 -24 -18 -20 0 -26 -4
-23 -17 2 -10 13 -19 25 -21 14 -2 23 -12 25 -25 4 -32 32 -28 36 5 3 21 8 27
25 25 13 -1 23 4 25 16 3 12 -3 17 -22 17 -19 0 -25 6 -28 27 -3 28 -37 46
-39 21z"/>
        <path d="M974 2391 c-18 -11 -39 -30 -48 -42 -36 -52 -5 -150 54 -171 l30 -10
0 -119 0 -119 25 0 25 0 0 119 c0 110 2 120 20 126 10 3 31 20 45 36 51 61 25
153 -51 185 -44 19 -63 18 -100 -5z m86 -46 c56 -29 48 -107 -12 -120 -78 -18
-119 95 -45 125 12 5 23 9 25 9 2 1 16 -6 32 -14z"/>
        <path d="M1250 2241 c0 -25 -4 -30 -27 -33 -37 -4 -37 -32 -1 -36 19 -2 28
-10 30 -25 5 -32 38 -35 38 -3 0 20 6 25 28 28 16 2 27 9 27 18 0 9 -11 16
-27 18 -24 3 -28 8 -28 33 0 22 -5 29 -20 29 -15 0 -20 -7 -20 -29z"/>
        <path d="M2055 2203 c-4 -21 -7 -45 -8 -53 -1 -8 -21 -19 -44 -25 -23 -5 -45
-14 -50 -18 -12 -12 26 -37 57 -37 23 0 28 -6 41 -47 8 -27 19 -48 24 -48 6 0
16 21 24 46 13 43 17 47 52 53 64 10 64 40 -1 51 -42 7 -40 5 -47 51 -11 70
-39 86 -48 27z m34 -119 c-14 -14 -17 -14 -29 0 -10 13 -10 19 0 32 12 14 15
14 29 0 14 -15 14 -17 0 -32z"/>
        <path d="M1825 2199 c-12 -18 4 -61 22 -57 22 4 38 32 30 52 -7 18 -42 22 -52
5z"/>
        <path d="M1212 2032 c-19 -6 -14 -40 7 -52 11 -5 46 -10 78 -10 528 3 603 6
619 22 9 9 14 24 11 32 -8 21 -80 22 -97 1 -10 -12 -48 -15 -220 -15 -202 0
-245 4 -235 20 5 7 -141 10 -163 2z"/>
        <path d="M1416 1908 c21 -69 68 -102 146 -103 67 0 101 21 136 83 l23 42 -156
0 -156 0 7 -22z m224 -27 c0 -16 -42 -41 -68 -41 -33 0 -95 28 -87 40 8 13
155 13 155 1z"/>
        <path d="M1918 1863 c-2 -22 -9 -29 -33 -33 -39 -7 -40 -34 -2 -38 22 -3 29
-10 34 -33 3 -16 10 -32 15 -35 13 -8 28 15 28 44 0 18 6 22 31 22 24 0 30 4
27 18 -2 10 -14 18 -30 20 -21 2 -28 9 -30 30 -4 38 -36 42 -40 5z"/>
        <path d="M975 1855 c-14 -13 -25 -33 -25 -45 0 -29 44 -70 75 -70 49 0 92 68
67 107 -8 13 -55 33 -78 33 -8 0 -26 -11 -39 -25z m75 -46 c0 -15 -5 -20 -22
-17 -34 5 -37 38 -4 38 20 0 26 -5 26 -21z"/>
        <path d="M1235 1830 c-8 -26 1 -40 26 -40 25 0 35 25 19 45 -17 21 -37 19 -45
-5z"/>
        <path d="M2120 1834 c-11 -13 -10 -19 8 -37 l22 -21 22 21 c18 18 19 24 8 37
-7 9 -20 16 -30 16 -10 0 -23 -7 -30 -16z"/>
        <path d="M1430 1783 c0 -11 123 -213 130 -213 3 0 24 30 45 66 22 36 50 82 62
102 30 50 29 54 -9 33 -18 -11 -52 -22 -75 -26 -39 -6 -65 1 -145 43 -5 2 -8
0 -8 -5z m160 -93 c0 -10 -9 -24 -20 -30 -15 -8 -21 -6 -30 9 -16 32 -12 41
20 41 23 0 30 -4 30 -20z"/>
        <path d="M1325 1696 l-55 -58 -61 53 c-47 40 -65 50 -76 43 -9 -5 -15 -13 -14
-17 0 -4 1 -143 1 -309 l1 -303 114 118 115 118 0 78 c0 54 4 80 13 83 36 14
37 7 37 -406 l0 -403 65 -1 65 -1 2 397 c3 450 12 398 -91 567 l-61 99 -55
-58z m80 -57 c15 -22 41 -68 60 -102 l34 -62 -1 -363 c0 -352 -1 -363 -20
-373 -11 -6 -24 -7 -29 -2 -4 4 -10 175 -12 378 -2 204 -7 377 -11 386 -4 9
-18 21 -31 27 -21 10 -29 8 -51 -11 -23 -20 -27 -33 -31 -93 -5 -69 -5 -69
-70 -141 -67 -75 -83 -86 -83 -55 -6 212 -6 422 0 432 7 11 16 8 42 -12 56
-43 72 -43 115 -4 21 20 44 36 50 36 7 0 24 -18 38 -41z"/>
        <path d="M1666 1625 l-76 -126 0 -402 0 -402 65 0 65 0 0 403 c0 350 2 403 15
408 8 4 22 1 30 -6 12 -10 14 -73 14 -407 l0 -396 161 -1 c88 0 160 2 160 5 0
4 -24 96 -54 205 -30 110 -82 305 -116 434 -33 129 -71 258 -84 285 -22 50
-80 125 -96 125 -4 0 -42 -56 -84 -125z m131 10 c28 -49 59 -150 113 -364 23
-91 52 -203 66 -250 14 -47 27 -93 29 -101 2 -8 12 -51 23 -95 11 -44 18 -82
16 -83 -1 -2 -51 -4 -109 -4 -81 -1 -109 3 -116 13 -5 8 -9 178 -9 378 0 361
0 365 -22 388 -28 29 -49 29 -77 -1 l-23 -25 -1 -363 c0 -200 -2 -369 -5 -375
-8 -23 -51 -15 -57 10 -3 12 -3 180 -2 372 l3 350 35 60 c64 108 84 135 99
132 8 -1 25 -20 37 -42z"/>
        <path d="M1010 1193 c4 -390 8 -498 18 -497 6 1 17 2 22 3 7 0 10 174 10 496
l0 495 -27 0 -28 0 5 -497z"/>
        <path d="M2046 1626 c-7 -44 -9 -46 -41 -46 -35 0 -51 -20 -32 -39 6 -6 21
-11 34 -11 13 0 26 -6 28 -12 26 -75 26 -74 41 -54 8 11 14 30 14 43 0 18 5
23 28 23 61 0 70 46 10 52 -30 3 -33 6 -38 43 -7 60 -35 60 -44 1z"/>
        <path d="M2112 1348 c-16 -16 -15 -33 2 -47 17 -14 49 13 44 38 -4 20 -30 25
-46 9z"/>
        <path d="M1312 1213 c-11 -27 -23 -64 -27 -83 -4 -19 -29 -124 -56 -233 -27
-109 -49 -200 -49 -202 0 -3 38 -5 85 -5 l85 0 0 285 c0 157 -4 285 -9 285 -5
0 -18 -21 -29 -47z m-2 -328 c2 -66 2 -125 1 -131 -1 -13 -55 -24 -71 -14 -9
5 41 238 57 263 10 16 11 2 13 -118z"/>
        <path d="M2085 1210 c-18 -20 -18 -21 3 -43 28 -28 57 -13 57 29 0 37 -33 44
-60 14z"/>
    </g>
</svg>