<?xml version="1.0" standalone="no"?>
<!DOCTYPE svg PUBLIC "-//W3C//DTD SVG 20010904//EN"
 "http://www.w3.org/TR/2001/REC-SVG-20010904/DTD/svg10.dtd">
<svg version="1.0" xmlns="http://www.w3.org/2000/svg"
 width="200.000000pt" height="200.000000pt" viewBox="0 0 250.000000 200.000000"
 preserveAspectRatio="xMidYMid meet">

<g transform="translate(-40.000000,250.000000) scale(0.050000,-0.050000)"
fill="#10375c" stroke="none">
<path d="M2670 4852 c-5 -18 -14 -45 -19 -62 -6 -16 -29 -30 -52 -30 -57 0
-44 -68 15 -76 27 -4 46 -23 50 -50 8 -60 61 -56 76 6 8 29 26 49 45 47 54 -4
59 52 6 73 -27 10 -51 37 -54 62 -8 54 -53 74 -67 30z"/>
<path d="M3030 4725 c-118 -246 -270 -583 -270 -600 0 -13 702 -9 716 4 3 4
-18 66 -47 139 -48 119 -51 140 -28 197 39 99 58 115 136 117 106 3 365 65
369 88 2 11 -32 30 -76 42 -104 29 -696 169 -713 168 -7 0 -46 -70 -87 -155z
m170 -103 c0 -9 18 -22 39 -28 64 -16 10 -107 -63 -107 -31 0 -52 4 -46 9 5 6
0 22 -12 36 -15 18 -11 36 16 65 39 43 66 53 66 25z m-30 -319 c-5 -14 -10
-38 -10 -51 0 -44 -89 -24 -115 26 -14 26 -23 49 -20 50 3 1 23 12 45 24 48
27 116 -7 100 -49z"/>
<path d="M1968 4792 c-189 -83 -196 -354 -10 -431 l62 -26 0 -237 0 -238 50 0
50 0 0 239 c0 219 3 239 39 251 22 7 62 39 90 73 157 186 -56 466 -281 369z
m221 -180 c23 -65 0 -111 -74 -147 -149 -73 -264 147 -118 224 71 37 166 -1
192 -77z"/>
<path d="M2510 4512 c-5 -18 -14 -45 -19 -60 -5 -16 -29 -32 -55 -35 -64 -10
-59 -66 8 -73 37 -5 55 -20 60 -50 8 -58 64 -57 72 1 5 33 20 45 55 45 27 0
49 9 49 20 0 11 1 27 1 35 1 8 -19 20 -44 26 -27 6 -50 30 -57 58 -13 57 -56
77 -70 33z"/>
<path d="M4121 4443 c-11 -22 -21 -61 -21 -87 -1 -69 -22 -91 -105 -106 -127
-24 -106 -110 26 -110 48 0 57 -11 77 -90 30 -118 74 -119 104 -2 20 81 27 88
99 100 130 21 130 79 0 102 -86 15 -82 10 -95 108 -14 102 -54 142 -85 85z"/>
<path d="M3665 4397 c-33 -33 -31 -67 5 -97 40 -33 94 10 86 68 -7 49 -56 64
-91 29z"/>
<path d="M2422 4064 c-107 -36 18 -124 171 -122 65 1 347 4 627 7 614 7 570 4
609 43 72 72 -72 122 -165 57 -53 -37 -853 -36 -880 1 -13 19 -313 30 -362 14z"/>
<path d="M2832 3815 c83 -263 426 -286 564 -38 l47 83 -313 0 -313 0 15 -45z"/>
<path d="M3838 3723 c-15 -44 -36 -62 -75 -67 -72 -8 -70 -64 3 -72 43 -5 58
-20 67 -66 19 -95 71 -88 90 11 4 22 29 44 57 51 67 16 64 68 -4 76 -41 5 -55
19 -60 59 -9 75 -53 79 -78 8z"/>
<path d="M1974 3739 c-100 -61 -70 -223 44 -249 96 -21 182 48 182 146 0 81
-150 149 -226 103z"/>
<path d="M2480 3670 c-32 -39 -11 -90 38 -90 46 0 63 37 39 85 -22 43 -44 44
-77 5z"/>
<path d="M4241 3663 c-37 -70 52 -126 101 -65 30 36 33 54 16 75 -33 39 -93
33 -117 -10z"/>
<path d="M3325 3545 c-107 -71 -234 -70 -410 4 -59 25 -41 -24 80 -220 128
-210 126 -209 230 -34 179 302 180 304 100 250z"/>
<path d="M3332 3249 l-152 -250 0 -812 c0 -732 3 -810 32 -799 17 7 76 12 130
12 l98 0 0 788 c0 685 4 790 31 813 72 60 77 6 78 -814 l1 -793 320 4 c175 3
322 7 325 10 3 3 -44 185 -103 404 -60 219 -164 610 -232 868 -132 507 -178
631 -279 746 -87 99 -76 107 -249 -177z"/>
<path d="M2253 3467 c-7 -8 -13 -293 -12 -635 l1 -622 228 235 228 235 6 155
c5 140 10 155 46 155 39 0 40 -15 45 -803 l5 -804 105 6 c58 4 116 7 130 9 20
1 25 178 25 809 l0 808 -138 227 c-164 271 -161 269 -283 139 l-96 -103 -126
101 c-129 104 -141 110 -164 88z"/>
<path d="M2020 2392 c0 -1016 1 -1024 75 -997 20 7 25 225 25 997 l0 988 -50
0 -50 0 0 -988z"/>
<path d="M4114 3326 c-6 -9 -17 -50 -24 -91 -13 -65 -22 -75 -70 -75 -115 0
-116 -87 -1 -103 36 -5 55 -25 68 -72 10 -36 31 -65 45 -65 15 0 34 29 44 65
12 50 29 66 69 71 115 14 119 95 5 107 -53 6 -61 16 -70 85 -9 74 -44 114 -66
78z"/>
<path d="M4222 2693 c-31 -38 -7 -93 40 -93 29 0 38 14 38 60 0 64 -38 80 -78
33z"/>
<path d="M2651 2472 c-40 -59 -296 -1048 -278 -1077 17 -27 307 -18 318 10 5
14 7 273 4 575 l-5 550 -39 -58z"/>
<path d="M4169 2419 c-36 -39 -35 -42 8 -84 70 -71 166 19 102 96 -33 40 -66
36 -110 -12z"/>
</g>
</svg>
